<svg width="30" height="32" xmlns="http://www.w3.org/2000/svg">

 <g>
  <title>background</title>
  <rect fill="none" id="canvas_background" height="402" width="582" y="-1" x="-1"/>
 </g>
 <g>
  <title>Layer 1</title>
  <path id="svg_3" fill="#000000" d="m29,23c-0.552,0 -1,-0.447 -1,-1c0,-2.206 -1.794,-4 -4,-4c-0.552,0 -1,-0.447 -1,-1s0.448,-1 1,-1c3.309,0 6,2.691 6,6c0,0.553 -0.448,1 -1,1z"/>
  <path id="svg_5" fill="#000000" d="m25,24c-0.552,0 -1,-0.447 -1,-1c0,-0.552 -0.449,-1 -1,-1c-0.552,0 -1,-0.447 -1,-1s0.448,-1 1,-1c1.654,0 3,1.346 3,3c0,0.553 -0.448,1 -1,1z"/>
  <path id="svg_7" fill="#000000" d="m23,26c-0.552,0 -1,-0.447 -1,-1s0.448,-1 1,-1c0.551,0 1,-0.448 1,-1c0,-0.553 0.448,-1 1,-1s1,0.447 1,1c0,1.654 -1.346,3 -3,3z"/>
  <path id="svg_9" fill="#000000" d="m23.001,22c-0.03,0 -0.061,-0.001 -0.091,-0.004l-11,-1c-0.55,-0.05 -0.956,-0.536 -0.906,-1.087c0.05,-0.549 0.54,-0.95 1.086,-0.905l11,1c0.55,0.05 0.956,0.536 0.906,1.087c-0.047,0.518 -0.483,0.909 -0.995,0.909z"/>
  <path id="svg_11" fill="#000000" d="m12,21c-0.256,0 -0.512,-0.098 -0.707,-0.293l-2,-2c-0.391,-0.391 -0.391,-1.023 0,-1.414s1.023,-0.391 1.414,0l2,2c0.391,0.391 0.391,1.023 0,1.414c-0.195,0.195 -0.451,0.293 -0.707,0.293z"/>
  <path id="svg_13" fill="#000000" d="m10,19c-0.256,0 -0.512,-0.098 -0.707,-0.293c-0.391,-0.391 -0.391,-1.023 0,-1.414l2,-2c0.391,-0.391 1.023,-0.391 1.414,0s0.391,1.023 0,1.414l-2,2c-0.195,0.195 -0.451,0.293 -0.707,0.293z"/>
  <path id="svg_15" fill="#000000" d="m11.957673,17c-0.552,0 -1,-0.447 -1,-1l0,-2c0,-0.553 0.448,-1 1,-1s1,0.447 1,1l0,2c0,0.553 -0.448,1 -1,1z"/>
  <path id="svg_17" fill="#000000" d="m12,15c-0.256,0 -0.512,-0.098 -0.707,-0.293l-1,-1c-0.391,-0.391 -0.391,-1.023 0,-1.414s1.023,-0.391 1.414,0l1,1c0.391,0.391 0.391,1.023 0,1.414c-0.195,0.195 -0.451,0.293 -0.707,0.293z"/>
  <path id="svg_19" fill="#000000" d="m11.001,14c-0.054,0 -0.11,-0.004 -0.166,-0.014c-0.979,-0.163 -1.904,-0.3 -2.767,-0.427c-4.683,-0.69 -8.068,-1.188 -8.068,-4.559c0,-0.553 0.448,-1 1,-1s1,0.447 1,1c0,1.502 1.744,1.901 6.36,2.581c0.875,0.129 1.812,0.268 2.804,0.433c0.544,0.091 0.913,0.606 0.822,1.15c-0.081,0.489 -0.505,0.836 -0.985,0.836z"/>
  <path id="svg_21" fill="#000000" d="m14,8l-6,0c-0.552,0 -1,-0.447 -1,-1s0.448,-1 1,-1l6,0c0.552,0 1,0.447 1,1s-0.448,1 -1,1z"/>
  <path id="svg_23" fill="#000000" d="m16.999,10c-0.19,0 -0.383,-0.055 -0.554,-0.168l-3,-2c-0.459,-0.307 -0.583,-0.927 -0.277,-1.387c0.307,-0.46 0.926,-0.584 1.387,-0.277l3,2c0.459,0.307 0.583,0.927 0.277,1.387c-0.193,0.289 -0.51,0.445 -0.833,0.445z"/>
  <path id="svg_25" fill="#000000" d="m20,2l-4,0c-0.552,0 -1,-0.447 -1,-1s0.448,-1 1,-1l4,0c0.552,0 1,0.447 1,1s-0.448,1 -1,1z"/>
  <path id="svg_27" fill="#000000" d="m23,5c-0.552,0 -1,-0.447 -1,-1c0,-1.103 -0.897,-2 -2,-2c-0.552,0 -1,-0.447 -1,-1s0.448,-1 1,-1c2.206,0 4,1.794 4,4c0,0.553 -0.448,1 -1,1z"/>
  <path id="svg_29" fill="#000000" d="m18,10c-0.552,0 -1,-0.447 -1,-1s0.448,-1 1,-1c2.206,0 4,-1.794 4,-4c0,-0.553 0.448,-1 1,-1s1,0.447 1,1c0,3.309 -2.691,6 -6,6z"/>
  <path id="svg_31" fill="#000000" d="m18,10l-1,0c-0.552,0 -1,-0.447 -1,-1s0.448,-1 1,-1l1,0c0.552,0 1,0.447 1,1s-0.448,1 -1,1z"/>
  <path id="svg_33" fill="#000000" d="m12.999,27c-0.508,0 -0.942,-0.385 -0.994,-0.9c-0.055,-0.55 0.346,-1.04 0.896,-1.095l10,-1c0.554,-0.042 1.04,0.347 1.095,0.896c0.055,0.55 -0.346,1.04 -0.896,1.095l-10,1c-0.034,0.002 -0.068,0.004 -0.101,0.004z"/>
  <path id="svg_35" fill="#000000" d="m11,29c-0.256,0 -0.512,-0.098 -0.707,-0.293c-0.391,-0.391 -0.391,-1.023 0,-1.414l2,-2c0.391,-0.391 1.023,-0.391 1.414,0s0.391,1.023 0,1.414l-2,2c-0.195,0.195 -0.451,0.293 -0.707,0.293z"/>
  <path id="svg_37" fill="#000000" d="m11,30c-0.552,0 -1,-0.447 -1,-1l0,-1c0,-0.553 0.448,-1 1,-1s1,0.447 1,1l0,1c0,0.553 -0.448,1 -1,1z"/>
  <path id="svg_39" fill="#000000" d="m12.999,31c-0.15,0 -0.303,-0.034 -0.446,-0.105l-2,-1c-0.494,-0.247 -0.694,-0.848 -0.447,-1.342c0.247,-0.494 0.847,-0.693 1.342,-0.447l2,1c0.494,0.247 0.694,0.848 0.447,1.342c-0.176,0.35 -0.529,0.552 -0.896,0.552z"/>
  <rect id="svg_41" fill="#000000" y="30" x="12" width="2" height="2"/>
  <path id="svg_43" fill="#000000" d="m1.976327,9.314673l-1.868,-0.714l2.997,-7.827l0,-0.816l2,0l0,1c0,0.122 -0.022,0.243 -0.066,0.357l-3.063,8z"/>
  <rect id="svg_45" fill="#000000" y="22" width="7" height="2"/>
  <rect id="svg_47" fill="#000000" y="16.307" x="3.5" width="2.001" transform="matrix(0.3714,-0.9285,0.9285,0.3714,-14.8123,16.1217) " height="5.385"/>
  <rect id="svg_49" fill="#000000" y="26" x="1.807" width="5.385" transform="matrix(0.9284,-0.3715,0.3715,0.9284,-9.7078,3.6037) " height="2.001"/>
 </g>
</svg>